# This file uses centimeters as units for non-parametric coordinates.

mtllib WorldmapLine01_05.mtl
g default
v -11.317381 -0.379245 11.918744
v -11.276767 -0.379245 11.723508
v -11.113654 -0.379245 11.716565
v -11.100937 -0.379245 11.884793
v -10.070633 -0.379245 11.339256
v -9.908278 -0.379245 11.441440
v -9.783747 -0.379245 11.275103
v -9.975091 -0.379245 11.218160
vt 0.273287 0.000601
vt 0.278880 0.000601
vt 0.278880 0.999837
vt 0.273287 0.999837
vt 0.307530 0.000601
vt 0.307530 0.999837
vt 0.310846 0.000601
vt 0.311108 0.999837
vn 0.000000 1.000000 0.000000
vn 0.000000 1.000000 -0.000000
vn 0.000000 1.000000 -0.000000
vn 0.000000 1.000000 0.000000
vn 0.000000 1.000000 -0.000000
vn 0.000000 1.000000 -0.000000
vn 0.000000 1.000000 -0.000000
vn 0.000000 1.000000 -0.000000
s 1
g WorldmapLine01_05
usemtl blinn1SG
f 1/1/1 4/2/2 3/3/3 2/4/4
f 4/2/2 6/5/5 5/6/6 3/3/3
f 6/5/5 7/7/7 8/8/8 5/6/6
