# This file uses centimeters as units for non-parametric coordinates.

mtllib WorldmapLine07_11.mtl
g default
v 7.211649 1.397669 -0.280587
v 7.197959 1.410408 -0.556258
v 7.843813 1.574493 -0.427689
v 7.768752 1.587232 -0.684954
v 8.331302 1.689242 -0.521092
v 8.336917 1.701980 -0.799524
v 6.590772 1.299167 -0.368609
v 6.687103 1.313601 -0.644638
v 5.836590 1.298503 -0.833373
v 6.031726 1.314264 -1.050535
vt 0.819511 0.000601
vt 0.819511 0.999837
vt 0.768570 0.999837
vt 0.768570 0.000601
vt 0.738320 0.999837
vt 0.738320 0.000601
vt 0.856575 0.000601
vt 0.856575 0.999837
vt 0.892800 0.000601
vt 0.892800 0.999837
vn -0.218044 0.974324 0.056128
vn -0.218044 0.974324 0.056128
vn -0.230253 0.969760 0.080923
vn -0.230253 0.969760 0.080923
vn -0.198281 0.977483 0.072191
vn -0.198281 0.977483 0.072191
vn -0.100822 0.994332 0.033744
vn -0.100822 0.994332 0.033744
vn -0.027665 0.998613 0.044788
vn -0.027665 0.998613 0.044788
s 1
g WorldmapLine07_11 WorldmapLine07
usemtl blinn1SG
f 2/1/1 1/2/2 3/3/3 4/4/4
f 4/4/4 3/3/3 5/5/5 6/6/6
f 8/7/7 7/8/8 1/2/2 2/1/1
f 10/9/9 9/10/10 7/8/8 8/7/7
