# This file uses centimeters as units for non-parametric coordinates.

mtllib WorldmapLine04_08.mtl
g default
v 4.367360 2.128086 -10.748892
v 4.534428 2.110816 -10.935604
v 3.060147 2.141397 -11.610163
v 3.023738 2.149988 -11.375506
v 4.470188 2.121804 -10.654698
v 4.687044 2.102243 -10.759904
vt 0.498134 0.000601
vt 0.580855 0.000601
vt 0.580855 0.999837
vt 0.498134 0.999837
vt 0.592740 0.000601
vt 0.592740 0.999837
vn 0.038338 0.998349 -0.042761
vn 0.059112 0.997746 -0.031750
vn 0.059112 0.997746 -0.031750
vn 0.038338 0.998349 -0.042761
vn 0.079852 0.996591 -0.020723
vn 0.079852 0.996591 -0.020723
s 1
g WorldmapLine04_08 WorldmapLine04
usemtl blinn1SG
f 4/1/1 1/2/2 2/3/3 3/4/4
f 1/2/2 5/5/5 6/6/6 2/3/3
