# This file uses centimeters as units for non-parametric coordinates.

mtllib WorldmapLine06_05.mtl
g default
v -1.523720 0.395048 8.830357
v -1.311907 0.394042 8.718905
v -1.630137 0.394769 8.392555
v -1.391064 0.393904 8.429282
v -1.595415 0.394924 8.641965
v -1.368699 0.393980 8.575326
v -0.987060 0.458702 10.082946
v -0.734455 0.460493 10.084700
v -0.984305 0.458487 10.220107
v -0.734802 0.460332 10.258530
vt 0.478758 0.000601
vt 0.518479 0.000601
vt 0.518479 0.999837
vt 0.478758 0.999837
vt 0.466466 0.000601
vt 0.473066 0.000601
vt 0.473066 0.999837
vt 0.466537 0.999837
vt 0.522895 0.000601
vt 0.522940 0.999837
vn -0.004272 0.999721 -0.023217
vn -0.009768 0.999719 -0.021598
vn -0.009768 0.999719 -0.021598
vn -0.004272 0.999721 -0.023217
vn 0.003809 0.999992 -0.001134
vn 0.003727 0.999992 -0.001552
vn 0.003727 0.999992 -0.001552
vn 0.003809 0.999992 -0.001134
vn -0.007343 0.999972 0.001266
vn -0.007343 0.999972 0.001266
s 1
g WorldmapLine06_05 WorldmapLine06
usemtl blinn1SG
f 1/1/1 7/2/2 8/3/3 2/4/4
f 3/5/5 5/6/6 6/7/7 4/8/8
f 5/6/6 1/1/1 2/4/4 6/7/7
f 7/2/2 9/9/9 10/10/10 8/3/3
