# This file uses centimeters as units for non-parametric coordinates.

mtllib WorldmapLine03_01.mtl
g default
v -9.387760 1.463747 -6.485013
v -9.593748 1.438034 -6.432978
v -9.782355 1.720069 -7.495309
v -9.900106 1.682012 -7.318700
v -9.768620 1.636827 -7.074925
v -9.587732 1.677102 -7.165459
v -10.076762 1.799073 -7.616348
v -10.113514 1.752775 -7.409440
v -11.431206 1.922154 -7.614193
v -11.448274 1.857026 -7.403513
v -11.597012 1.912387 -7.659761
v -11.695467 1.846841 -7.469872
vt 0.105021 0.000601
vt 0.123622 0.000601
vt 0.123622 0.999837
vt 0.105021 0.999837
vt 0.087193 0.999837
vt 0.087193 0.000601
vt 0.001777 0.999837
vt 0.001777 0.000601
vt 0.227151 0.999837
vt 0.227151 0.000601
vt 0.242311 0.000601
vt 0.242311 0.999837
vn 0.070093 0.995930 -0.056652
vn 0.123497 0.954621 0.271011
vn 0.123497 0.954621 0.271011
vn 0.110370 0.963501 0.243896
vn -0.064504 0.965229 0.253321
vn -0.064504 0.965229 0.253321
vn -0.047906 0.949672 0.309561
vn -0.047906 0.949672 0.309561
vn -0.019566 0.961845 0.272895
vn -0.019566 0.961845 0.272895
vn -0.093412 0.969401 0.227016
vn -0.090805 0.969798 0.226376
s 1
g WorldmapLine03_01 WorldmapLine03
usemtl blinn1SG
f 3/1/1 7/2/2 8/3/3 4/4/4
f 5/5/5 6/6/6 3/1/1 4/4/4
f 2/7/7 1/8/8 6/6/6 5/5/5
f 10/9/9 8/3/3 7/2/2 9/10/10
f 9/10/10 11/11/11 12/12/12 10/9/9
