# This file uses centimeters as units for non-parametric coordinates.

mtllib WorldmapLine08_08.mtl
g default
v 11.424274 2.478858 -6.235133
v 11.396803 2.478858 -5.973345
v 10.321513 2.497043 -7.383453
v 10.115710 2.460672 -7.274716
v 10.476046 2.478858 -6.603240
v 10.680454 2.478858 -6.720556
v 11.125763 2.478858 -6.325474
v 11.026434 2.478858 -6.088518
v 10.855091 2.478858 -6.505259
v 10.708769 2.478858 -6.299177
v 11.775069 2.478858 -5.988966
v 11.735074 2.478858 -6.234252
vt 0.623846 0.000601
vt 0.623846 0.999837
vt 0.574492 0.999837
vt 0.574492 0.000601
vt 0.668278 0.000601
vt 0.668278 0.999837
vt 0.659285 0.999837
vt 0.659285 0.000601
vt 0.641566 0.999837
vt 0.641566 0.000601
vt 0.685360 0.000601
vt 0.685360 0.999837
vn -0.034102 0.999249 0.018383
vn -0.034102 0.999249 0.018383
vn -0.068154 0.996998 0.036737
vn -0.068154 0.996998 0.036737
vn 0.000000 1.000000 0.000000
vn 0.000000 1.000000 0.000000
vn 0.000000 1.000000 0.000000
vn 0.000000 1.000000 0.000000
vn 0.000000 1.000000 0.000000
vn 0.000000 1.000000 0.000000
vn 0.000000 1.000000 0.000000
vn 0.000000 1.000000 0.000000
s 1
g WorldmapLine08_08 WorldmapLine08
usemtl blinn1SG
f 5/1/1 6/2/2 3/3/3 4/4/4
f 2/5/5 1/6/6 7/7/7 8/8/8
f 8/8/8 7/7/7 9/9/9 10/10/10
f 11/11/11 12/12/12 1/6/6 2/5/5
f 10/10/10 9/9/9 6/2/2 5/1/1
