# This file uses centimeters as units for non-parametric coordinates.

mtllib WorldmapLine02_02.mtl
g default
v -10.591163 1.024127 4.765845
v -10.725758 1.078375 4.606899
v -10.261777 1.064517 4.025698
v -10.127381 1.001557 4.185332
v -11.107989 1.091080 4.961959
v -10.997407 1.037495 5.146124
v -11.472319 1.101036 5.184841
v -11.426319 1.047331 5.411821
v -11.546078 1.125853 5.203792
v -11.548038 1.027527 5.428387
vt 0.315030 0.999837
vt 0.333244 0.999837
vt 0.333244 0.000601
vt 0.315030 0.000601
vt 0.289359 0.999837
vt 0.289359 0.000601
vt 0.347070 0.999837
vt 0.347070 0.000601
vt 0.350572 0.999837
vt 0.350572 0.000601
vn 0.211344 0.963811 0.162489
vn 0.167622 0.968691 0.183141
vn 0.167622 0.968691 0.183141
vn 0.211344 0.963811 0.162489
vn 0.233245 0.959795 0.156177
vn 0.233245 0.959795 0.156177
vn 0.113538 0.960318 0.254753
vn 0.113538 0.960318 0.254753
vn 0.080776 0.946991 0.310941
vn 0.080776 0.946991 0.310941
s 1
g WorldmapLine02_02 WorldmapLine02
usemtl blinn1SG
f 2/1/1 5/2/2 6/3/3 1/4/4
f 3/5/5 2/1/1 1/4/4 4/6/6
f 5/2/2 7/7/7 8/8/8 6/3/3
f 7/7/7 9/9/9 10/10/10 8/8/8
