# This file uses centimeters as units for non-parametric coordinates.

mtllib WorldmapLine08_04.mtl
g default
v 10.227174 1.870414 -5.599866
v 10.447371 1.860521 -5.753143
v 10.242414 1.895985 -5.299208
v 10.445612 1.891338 -5.139450
v 10.271205 1.883051 -5.422716
v 10.540626 1.875569 -5.450681
v 9.364132 1.764313 -6.540995
v 9.228361 1.768266 -6.327018
vt 0.318101 0.000601
vt 0.318101 0.999837
vt 0.305062 0.999837
vt 0.305062 0.000601
vt 0.292316 0.999837
vt 0.292316 0.000601
vt 0.389069 0.999837
vt 0.389069 0.000601
vn -0.013451 0.997551 -0.068644
vn -0.013451 0.997551 -0.068644
vn 0.026743 0.997972 -0.057769
vn 0.026743 0.997972 -0.057769
vn 0.040739 0.997695 -0.054267
vn 0.040739 0.997695 -0.054267
vn -0.039634 0.996322 -0.075978
vn -0.039634 0.996322 -0.075978
s 1
g WorldmapLine08_04 WorldmapLine08
usemtl blinn1SG
f 2/1/1 1/2/2 5/3/3 6/4/4
f 6/4/4 5/3/3 3/5/5 4/6/6
f 8/7/7 1/2/2 2/1/1 7/8/8
