# This file uses centimeters as units for non-parametric coordinates.

mtllib WorldmapLine07_01.mtl
g default
v 4.326633 1.162410 5.640181
v 4.238127 1.124970 5.419517
v 5.286908 1.452246 5.244374
v 5.150783 1.426652 5.060212
v 5.569781 1.347675 4.506868
v 5.795872 1.361829 4.634720
v 5.867658 1.310716 4.559003
v 5.735127 1.302051 4.310421
vt 0.001777 0.000601
vt 0.111465 0.000601
vt 0.111465 0.999837
vt 0.001777 0.999837
vt 0.161390 0.000601
vt 0.161390 0.999837
vt 0.151214 0.999837
vt 0.151214 0.000601
vn -0.295530 0.955212 0.015251
vn -0.145294 0.987460 -0.061740
vn -0.145294 0.987460 -0.061740
vn -0.295530 0.955212 0.015251
vn 0.156100 0.965752 -0.207257
vn 0.156100 0.965752 -0.207257
vn 0.082948 0.981481 -0.172668
vn 0.082948 0.981481 -0.172668
s 1
g WorldmapLine07_01 WorldmapLine07
usemtl blinn1SG
f 1/1/1 3/2/2 4/3/3 2/4/4
f 7/5/5 8/6/6 5/7/7 6/8/8
f 6/8/8 5/7/7 4/3/3 3/2/2
