# This file uses centimeters as units for non-parametric coordinates.

mtllib WorldmapLine02_01.mtl
g default
v -8.334840 0.899363 3.774393
v -8.416581 0.842452 3.965704
v -9.625252 1.049544 3.731390
v -9.553267 0.983747 3.911101
v -9.030217 0.972829 3.627994
v -9.037745 0.914724 3.822362
v -9.326226 1.009012 3.645582
v -9.287509 0.947279 3.835266
v -10.261776 1.064517 4.025697
v -10.127380 1.001557 4.185331
vt 0.217699 0.999837
vt 0.243031 0.999837
vt 0.243031 0.000601
vt 0.217699 0.000601
vt 0.253985 0.999837
vt 0.253985 0.000601
vt 0.266256 0.999837
vt 0.289359 0.999837
vt 0.289359 0.000601
vt 0.266256 0.000601
vn 0.143745 0.966544 0.212440
vn 0.088292 0.952949 0.289987
vn 0.088292 0.952949 0.289987
vn 0.141337 0.966275 0.215259
vn 0.169898 0.946358 0.274847
vn 0.169898 0.946358 0.274847
vn 0.138819 0.968106 0.208566
vn 0.151876 0.951216 0.268554
vn 0.151876 0.951216 0.268554
vn 0.143954 0.966418 0.212868
s 1
g WorldmapLine02_01 WorldmapLine02
usemtl blinn1SG
f 1/1/1 5/2/2 6/3/3 2/4/4
f 5/2/2 7/5/5 8/6/6 6/3/3
f 3/7/7 9/8/8 10/9/9 4/10/10
f 7/5/5 3/7/7 4/10/10 8/6/6
