# This file uses centimeters as units for non-parametric coordinates.

mtllib WorldmapLine03_03.mtl
g default
v -12.913263 1.870280 -8.855167
v -13.173314 1.809205 -8.775508
v -13.205208 1.806549 -8.965997
v -12.957434 1.866337 -8.978022
v -13.210893 1.802463 -10.731162
v -12.950663 1.860269 -10.638675
v -12.917453 1.855964 -10.675879
v -13.066747 1.799563 -10.928873
vt 0.327164 0.000601
vt 0.335922 0.000601
vt 0.335922 0.999837
vt 0.327164 0.999837
vt 0.359847 0.000601
vt 0.359643 0.999837
vt 0.369688 0.000601
vt 0.369688 0.999837
vn -0.171601 0.984394 0.039004
vn -0.225348 0.974153 0.015646
vn -0.225348 0.974153 0.015646
vn -0.137264 0.981381 0.134350
vn -0.188714 0.979257 -0.073770
vn -0.188714 0.979257 -0.073770
vn -0.151154 0.977949 -0.144111
vn -0.151154 0.977949 -0.144111
s 1
g WorldmapLine03_03 WorldmapLine03
usemtl blinn1SG
f 1/1/1 4/2/2 3/3/3 2/4/4
f 4/2/2 6/5/5 5/6/6 3/3/3
f 6/5/5 7/7/7 8/8/8 5/6/6
