# This file uses centimeters as units for non-parametric coordinates.

mtllib WorldmapLine07_07.mtl
g default
v 7.077032 1.301209 2.179630
v 7.361352 1.311559 2.321567
v 7.960175 1.335998 1.805030
v 7.995359 1.347498 2.088059
v 7.359001 1.318377 1.917541
v 7.478653 1.329294 2.200719
v 9.164320 1.386211 1.988224
v 9.123904 1.373472 1.716190
vt 0.504370 0.000601
vt 0.534888 0.000601
vt 0.534888 0.999837
vt 0.504370 0.999837
vt 0.490020 0.000601
vt 0.490020 0.999837
vt 0.476039 0.000601
vt 0.476039 0.999837
vn -0.036819 0.998745 -0.033962
vn -0.035749 0.998610 -0.038738
vn -0.035749 0.998610 -0.038738
vn -0.036819 0.998745 -0.033962
vn -0.054292 0.998507 -0.005975
vn -0.054292 0.998507 -0.005975
vn -0.070651 0.997352 0.017241
vn -0.070651 0.997352 0.017241
s 1
g WorldmapLine07_07 WorldmapLine07
usemtl blinn1SG
f 4/1/1 7/2/2 8/3/3 3/4/4
f 6/5/5 4/1/1 3/4/4 5/6/6
f 2/7/7 6/5/5 5/6/6 1/8/8
