# This file uses centimeters as units for non-parametric coordinates.

mtllib WorldmapLine01_09.mtl
g default
v -10.031933 -0.417200 8.661702
v -10.176804 -0.413506 8.808182
v -10.217997 -0.399627 8.551715
v -10.285205 -0.394207 8.741310
v -9.160615 -0.508429 9.935575
v -9.255211 -0.514862 10.129797
v -9.243425 -0.501688 9.823731
v -9.415671 -0.507364 9.939526
v -9.034698 -0.531211 10.201135
v -9.060477 -0.523126 9.986196
vt 0.530939 0.000601
vt 0.537094 0.000601
vt 0.537094 0.999837
vt 0.530939 0.999837
vt 0.444888 0.000601
vt 0.454300 0.000601
vt 0.454300 0.999837
vt 0.444888 0.999837
vt 0.525502 0.000601
vt 0.525502 0.999837
vn 0.041443 0.998088 0.045848
vn 0.045162 0.998789 -0.019532
vn 0.087505 0.995583 -0.034031
vn 0.041443 0.998088 0.045848
vn 0.102009 0.994080 0.037413
vn 0.069630 0.996559 0.044975
vn 0.069630 0.996559 0.044975
vn 0.102009 0.994080 0.037413
vn 0.021010 0.998634 0.047843
vn 0.021010 0.998634 0.047843
s 1
g WorldmapLine01_09
usemtl blinn1SG
f 6/1/1 9/2/2 10/3/3 5/4/4
f 4/5/5 2/6/6 1/7/7 3/8/8
f 8/9/9 6/1/1 5/4/4 7/10/10
f 2/6/6 8/9/9 7/10/10 1/7/7
