# This file uses centimeters as units for non-parametric coordinates.

mtllib WorldmapLine04_11.mtl
g default
v 2.011639 1.720468 -7.539589
v 2.151073 1.683805 -7.401659
v 2.625905 1.828779 -8.092010
v 2.786534 1.792685 -7.956375
v 1.305763 1.657551 -6.662663
v 1.475855 1.614852 -6.550599
v 1.640207 1.687023 -7.144742
v 1.799016 1.647151 -7.018514
vt 0.800075 0.000601
vt 0.825656 0.000601
vt 0.825656 0.999837
vt 0.799877 0.999837
vt 0.749575 0.000601
vt 0.749618 0.999837
vt 0.848199 0.000601
vt 0.848199 0.999837
vn 0.062810 0.977532 0.201212
vn 0.113993 0.979485 0.166177
vn 0.113993 0.979485 0.166177
vn 0.062810 0.977532 0.201212
vn 0.030532 0.973767 0.225491
vn 0.030532 0.973767 0.225491
vn 0.132947 0.978821 0.155674
vn 0.132947 0.978821 0.155674
s 1
g WorldmapLine04_11 WorldmapLine04
usemtl blinn1SG
f 1/1/1 7/2/2 8/3/3 2/4/4
f 3/5/5 1/1/1 2/4/4 4/6/6
f 7/2/2 5/7/7 6/8/8 8/3/3
