# This file uses centimeters as units for non-parametric coordinates.

mtllib WorldmapLine05_11.mtl
g default
v -5.786698 1.587100 -2.664433
v -5.929461 1.585473 -2.547497
v -5.038364 1.582471 -2.366168
v -5.075858 1.579548 -2.198950
v -6.000833 1.586775 -2.717358
v -5.800082 1.588049 -2.717302
v -5.458522 1.580405 -2.312821
v -5.390190 1.583140 -2.470833
v -4.645291 1.581766 -2.310512
v -4.661097 1.578696 -2.140560
v -4.258852 1.660296 -2.138016
v -4.281973 1.664460 -2.317271
v -4.119056 1.677312 -2.334509
v -4.093925 1.673031 -2.155860
vt 0.895719 0.000601
vt 0.942193 0.000601
vt 0.942193 0.999837
vt 0.895719 0.999837
vt 0.857348 0.000601
vt 0.889038 0.000601
vt 0.889038 0.999837
vt 0.857348 0.999837
vt 0.851472 0.000601
vt 0.851472 0.999837
vt 0.892245 0.000601
vt 0.892245 0.999837
vt 0.946977 0.000601
vt 0.946977 0.999837
vn -0.105688 0.994172 0.021281
vn -0.142252 0.989401 0.029149
vn -0.142252 0.989401 0.029149
vn -0.105688 0.994172 0.021281
vn -0.001283 0.999893 0.014546
vn -0.000480 0.999857 0.016886
vn -0.000480 0.999857 0.016886
vn -0.001283 0.999893 0.014546
vn -0.004431 0.999921 0.011796
vn -0.004431 0.999921 0.011796
vn -0.001697 0.999853 0.017081
vn -0.001697 0.999853 0.017081
vn -0.074200 0.996680 0.033520
vn -0.074200 0.996680 0.033520
s 1
g WorldmapLine05_11 WorldmapLine05
usemtl blinn1SG
f 10/1/1 11/2/2 12/3/3 9/4/4
f 2/5/5 7/6/6 8/7/7 1/8/8
f 5/9/9 2/5/5 1/8/8 6/10/10
f 7/6/6 4/11/11 3/12/12 8/7/7
f 4/11/11 10/1/1 9/4/4 3/12/12
f 11/2/2 14/13/13 13/14/14 12/3/3
