# This file uses centimeters as units for non-parametric coordinates.

mtllib WorldmapLine02_03.mtl
g default
v -11.546078 1.125853 5.203792
v -11.548038 1.027527 5.428387
v -12.786806 1.107930 4.505993
v -12.979715 1.057702 4.641401
v -12.027706 1.109533 5.058598
v -12.126904 1.060437 5.248470
v -11.617477 1.104653 5.186043
v -11.651875 1.051552 5.412076
v -12.457358 1.108618 4.795371
v -12.617171 1.058876 4.950016
v -12.248585 1.109054 4.945827
v -12.387424 1.059620 5.112662
v -12.848890 1.107454 4.416556
v -13.081821 1.057580 4.485889
vt 0.353159 0.000601
vt 0.350572 0.000601
vt 0.350572 0.999837
vt 0.353159 0.999837
vt 0.386003 0.999837
vt 0.389474 0.999837
vt 0.389474 0.000601
vt 0.386003 0.000601
vt 0.365760 0.999837
vt 0.371805 0.999837
vt 0.371805 0.000601
vt 0.365760 0.000601
vt 0.377312 0.999837
vt 0.377312 0.000601
vn -0.051742 0.961986 0.268151
vn -0.045906 0.948025 0.314868
vn -0.045906 0.948025 0.314868
vn -0.051742 0.961986 0.268151
vn -0.158955 0.977498 0.138676
vn -0.174717 0.977912 0.114728
vn -0.174717 0.977912 0.114728
vn -0.158955 0.977498 0.138676
vn -0.081408 0.974328 0.209898
vn -0.118020 0.974831 0.189146
vn -0.118020 0.974831 0.189146
vn -0.081408 0.974328 0.209898
vn -0.136890 0.975723 0.170955
vn -0.136890 0.975723 0.170955
s 1
g WorldmapLine02_03 WorldmapLine02
usemtl blinn1SG
f 8/1/1 2/2/2 1/3/3 7/4/4
f 3/5/5 13/6/6 14/7/7 4/8/8
f 5/9/9 11/10/10 12/11/11 6/12/12
f 6/12/12 8/1/1 7/4/4 5/9/9
f 9/13/13 3/5/5 4/8/8 10/14/14
f 11/10/10 9/13/13 10/14/14 12/11/11
