# This file uses centimeters as units for non-parametric coordinates.

mtllib WorldmapLine02_04.mtl
g default
v -13.081820 1.057580 4.485889
v -12.848889 1.107454 4.416556
v -12.877932 1.106475 4.285705
v -13.109746 1.057328 4.292336
v -12.791702 1.098835 2.836273
v -13.008373 1.055358 2.715282
v -12.710726 1.098081 2.721749
v -12.887744 1.055164 2.537890
vt 0.389474 0.999837
vt 0.391814 0.999837
vt 0.391814 0.000601
vt 0.389474 0.000601
vt 0.411592 0.999837
vt 0.411592 0.000601
vt 0.414091 0.999837
vt 0.414091 0.000601
vn -0.203280 0.978598 0.031983
vn -0.200930 0.979571 0.008287
vn -0.200930 0.979571 0.008287
vn -0.203280 0.978598 0.031983
vn -0.169086 0.983924 -0.057471
vn -0.169086 0.983924 -0.057471
vn -0.064636 0.994876 -0.077741
vn -0.116249 0.993175 0.009457
s 1
g WorldmapLine02_04 WorldmapLine02
usemtl blinn1SG
f 2/1/1 3/2/2 4/3/3 1/4/4
f 3/2/2 5/5/5 6/6/6 4/3/3
f 5/5/5 7/7/7 8/8/8 6/6/6
