# This file uses centimeters as units for non-parametric coordinates.

mtllib WorldmapLine05_05.mtl
g default
v -8.706847 1.655156 -4.309083
v -8.508982 1.623085 -4.340975
v -9.031326 1.657163 -5.300283
v -8.832176 1.621079 -5.321577
v -8.998973 1.656794 -5.515173
v -8.809812 1.621447 -5.400963
v -8.700559 1.655073 -4.241539
v -8.501504 1.623168 -4.236875
vt 0.392207 0.000601
vt 0.408303 0.000601
vt 0.408398 0.999837
vt 0.392207 0.999837
vt 0.411443 0.000601
vt 0.411443 0.999837
vt 0.389486 0.000601
vt 0.389486 0.999837
vn 0.167846 0.985757 -0.010503
vn 0.160178 0.986538 -0.032963
vn 0.160178 0.986538 -0.032963
vn 0.167846 0.985757 -0.010503
vn 0.158266 0.987315 -0.012692
vn 0.158266 0.987315 -0.012692
vn 0.173356 0.984332 0.032234
vn 0.173356 0.984332 0.032234
s 1
g WorldmapLine05_05 WorldmapLine05
usemtl blinn1SG
f 3/1/1 1/2/2 2/3/3 4/4/4
f 1/2/2 7/5/5 8/6/6 2/3/3
f 5/7/7 3/1/1 4/4/4 6/8/8
