# This file uses centimeters as units for non-parametric coordinates.

mtllib WorldmapLine02_08.mtl
g default
v -9.949746 1.214568 0.852880
v -10.160141 1.207595 0.794788
v -9.972786 1.209831 0.949722
v -10.195443 1.194491 0.934832
v -9.390246 1.197006 -0.582552
v -9.272073 1.223010 -0.382168
v -9.209087 1.224163 -0.409193
v -9.217408 1.195560 -0.640908
vt 0.625301 0.999837
vt 0.634554 0.999837
vt 0.634554 0.000601
vt 0.625301 0.000601
vt 0.554494 0.999837
vt 0.558473 0.999837
vt 0.558473 0.000601
vt 0.554494 0.000601
vn -0.054634 0.995569 -0.076531
vn -0.008970 0.994303 -0.106213
vn 0.032541 0.995038 -0.094020
vn -0.054634 0.995569 -0.076531
vn -0.061432 0.996312 0.059911
vn -0.020008 0.999640 -0.017855
vn -0.020008 0.999640 -0.017855
vn -0.061432 0.996312 0.059911
s 1
g WorldmapLine02_08 WorldmapLine02
usemtl blinn1SG
f 6/1/1 7/2/2 8/3/3 5/4/4
f 3/5/5 1/6/6 2/7/7 4/8/8
f 1/6/6 6/1/1 5/4/4 2/7/7
