# This file uses centimeters as units for non-parametric coordinates.

mtllib WorldmapLine07_08.mtl
g default
v 9.123905 1.373472 1.716190
v 9.164321 1.386211 1.988224
v 10.611191 1.499650 1.610138
v 10.773141 1.526926 1.849076
v 11.024347 1.517377 1.598946
v 10.733702 1.509199 1.488562
vt 0.601865 0.000601
vt 0.601865 0.999837
vt 0.534888 0.999837
vt 0.534888 0.000601
vt 0.611321 0.000601
vt 0.611321 0.999837
vn -0.066606 0.996833 -0.043450
vn -0.066606 0.996833 -0.043450
vn -0.089156 0.995106 -0.042618
vn -0.089156 0.995106 -0.042618
vn -0.044021 0.998050 -0.044259
vn -0.044021 0.998050 -0.044259
s 1
g WorldmapLine07_08 WorldmapLine07
usemtl blinn1SG
f 4/1/1 3/2/2 1/3/3 2/4/4
f 5/5/5 6/6/6 3/2/2 4/1/1
