# This file uses centimeters as units for non-parametric coordinates.

mtllib WorldmapLine07_09.mtl
g default
v 10.708170 1.509426 1.317200
v 10.996586 1.517150 1.199297
v 10.733702 1.509199 1.488562
v 11.024347 1.517377 1.598947
v 9.909682 1.701084 0.116253
v 9.689348 1.690138 0.280249
vt 0.620053 0.000601
vt 0.620053 0.999837
vt 0.611321 0.999837
vt 0.611321 0.000601
vt 0.671018 0.000601
vt 0.671018 0.999837
vn 0.005026 0.997670 0.068041
vn 0.005026 0.997670 0.068041
vn -0.027416 0.999621 0.002558
vn -0.027416 0.999621 0.002558
vn 0.037441 0.990387 0.133160
vn 0.037441 0.990387 0.133160
s 1
g WorldmapLine07_09 WorldmapLine07
usemtl blinn1SG
f 2/1/1 1/2/2 3/3/3 4/4/4
f 5/5/5 6/6/6 1/2/2 2/1/1
