# This file uses centimeters as units for non-parametric coordinates.

mtllib WorldmapLine07_05.mtl
g default
v 10.287898 1.309212 3.434954
v 10.135850 1.303556 3.633309
v 10.474127 1.309825 3.700328
v 10.223370 1.302944 3.762441
v 8.840486 1.320953 2.929441
v 8.750203 1.291815 3.179293
vt 0.372847 0.000601
vt 0.372847 0.999837
vt 0.363358 0.999837
vt 0.363430 0.000601
vt 0.415336 0.000601
vt 0.415336 0.999837
vn -0.021830 0.998954 0.040193
vn -0.021830 0.998954 0.040193
vn -0.021476 0.999658 0.014901
vn -0.021476 0.999658 0.014901
vn -0.022170 0.997609 0.065459
vn -0.022170 0.997609 0.065459
s 1
g WorldmapLine07_05 WorldmapLine07
usemtl blinn1SG
f 1/1/1 2/2/2 4/3/3 3/4/4
f 1/1/1 5/5/5 6/6/6 2/2/2
