# This file uses centimeters as units for non-parametric coordinates.

mtllib WorldmapLine01_03.mtl
g default
v -13.800102 -0.526225 10.116965
v -13.621036 -0.526225 10.068766
v -13.798050 -0.526225 9.872078
v -13.615625 -0.526225 9.894673
v -13.350222 -0.427884 10.980886
v -13.210222 -0.427884 10.860838
v -12.938278 -0.383708 11.252950
v -13.040091 -0.383708 11.412684
v -13.411032 -0.471343 10.526621
v -13.576629 -0.471343 10.602273
v -12.885031 -0.379244 11.485429
v -12.840275 -0.379244 11.301544
vt 0.158484 0.000601
vt 0.174726 0.000601
vt 0.174726 0.999837
vt 0.158484 0.999837
vt 0.130548 0.000601
vt 0.138545 0.000601
vt 0.138545 0.999837
vt 0.130548 0.999837
vt 0.192933 0.000601
vt 0.198545 0.000601
vt 0.198545 0.999837
vt 0.192933 0.999837
vn -0.045910 0.994561 -0.093487
vn -0.062065 0.995384 -0.073210
vn -0.062065 0.995384 -0.073210
vn -0.045910 0.994561 -0.093487
vn 0.000000 1.000000 0.000000
vn 0.000000 1.000000 0.000000
vn 0.000000 1.000000 0.000000
vn 0.000000 1.000000 0.000000
vn -0.048654 0.998180 -0.035641
vn 0.000000 1.000000 0.000000
vn 0.000000 1.000000 0.000000
vn -0.048654 0.998180 -0.035641
s 1
g WorldmapLine01_03
usemtl blinn1SG
f 10/1/1 5/2/2 6/3/3 9/4/4
f 3/5/5 1/6/6 2/7/7 4/8/8
f 8/9/9 11/10/10 12/11/11 7/12/12
f 5/2/2 8/9/9 7/12/12 6/3/3
f 1/6/6 10/1/1 9/4/4 2/7/7
