# This file uses centimeters as units for non-parametric coordinates.

mtllib WorldmapLine08_11.mtl
g default
v 13.193650 2.497704 -8.846916
v 13.323798 2.460012 -8.639910
v 12.525396 2.478858 -7.784294
v 12.424628 2.478858 -7.993348
v 11.838831 2.478858 -7.539766
v 11.763374 2.478858 -7.773010
v 11.260586 2.478858 -7.697203
v 11.456392 2.478858 -7.863636
v 11.129982 2.478858 -8.333477
v 11.379296 2.478858 -8.225456
v 11.061284 2.478858 -7.993296
v 11.337966 2.478858 -8.051554
v 11.570822 2.478858 -7.497056
v 11.621092 2.478858 -7.734054
v 12.997211 2.469907 -8.156235
v 12.824823 2.487808 -8.315495
v 13.499207 2.465154 -8.717329
v 13.487193 2.492562 -8.956124
vt 0.841066 0.000601
vt 0.841066 0.999837
vt 0.835650 0.999837
vt 0.835650 0.000601
vt 0.881176 0.000601
vt 0.881176 0.999837
vt 0.857207 0.999837
vt 0.857207 0.000601
vt 0.912384 0.000601
vt 0.912384 0.999837
vt 0.935208 0.000601
vt 0.935208 0.999837
vt 0.922768 0.999837
vt 0.922768 0.000601
vt 0.960060 0.000601
vt 0.960060 0.999837
vt 0.948644 0.999837
vt 0.948644 0.000601
vn 0.075450 0.992283 0.098398
vn 0.075450 0.992283 0.098398
vn 0.051075 0.990414 0.128340
vn 0.051075 0.990414 0.128340
vn 0.012156 0.999810 0.015272
vn 0.012156 0.999810 0.015272
vn 0.062065 0.996845 0.049469
vn 0.062065 0.996845 0.049469
vn 0.000000 1.000000 0.000000
vn 0.000000 1.000000 0.000000
vn 0.000000 1.000000 0.000000
vn 0.000000 1.000000 0.000000
vn 0.000000 1.000000 0.000000
vn 0.000000 1.000000 0.000000
vn 0.000000 1.000000 -0.000001
vn 0.000000 1.000000 -0.000001
vn 0.000000 1.000000 -0.000000
vn 0.000000 1.000000 -0.000000
s 1
g WorldmapLine08_11 WorldmapLine08
usemtl blinn1SG
f 1/1/1 2/2/2 17/3/3 18/4/4
f 4/5/5 3/6/6 15/7/7 16/8/8
f 6/9/9 5/10/10 3/6/6 4/5/5
f 8/11/11 7/12/12 13/13/13 14/14/14
f 10/15/15 9/16/16 11/17/17 12/18/18
f 12/18/18 11/17/17 7/12/12 8/11/11
f 14/14/14 13/13/13 5/10/10 6/9/9
f 16/8/8 15/7/7 2/2/2 1/1/1
