# This file uses centimeters as units for non-parametric coordinates.

mtllib WorldmapLine06_03.mtl
g default
v -0.473437 0.329534 5.602319
v -0.493848 0.329289 5.318115
v 0.004338 0.329535 6.060372
v 0.262872 0.329534 6.073705
v -0.661735 0.332686 5.648031
v -0.778723 0.331431 5.404151
v 0.012948 0.329391 5.507264
v -0.153346 0.329538 5.736989
v -0.225377 0.335240 6.882976
v 0.006243 0.332860 6.999168
v -0.220081 0.329340 5.374321
v -0.323275 0.329536 5.636348
v -0.043641 0.329536 5.871439
v 0.204759 0.329462 5.764397
v -0.315931 0.336818 7.034415
v -0.102460 0.333780 7.188837
vt 0.351651 0.000601
vt 0.364103 0.000601
vt 0.364103 0.999837
vt 0.351651 0.999837
vt 0.376554 0.000601
vt 0.409384 0.000601
vt 0.409384 0.999837
vt 0.376554 0.999837
vt 0.325635 0.000601
vt 0.334395 0.000601
vt 0.334395 0.999837
vt 0.325635 0.999837
vt 0.343023 0.000601
vt 0.343023 0.999837
vt 0.420262 0.000601
vt 0.420262 0.999837
vn 0.000224 1.000000 -0.000474
vn 0.000178 1.000000 -0.000264
vn 0.000178 1.000000 -0.000264
vn 0.000224 1.000000 -0.000474
vn 0.002956 0.999994 -0.001859
vn 0.009032 0.999958 -0.001856
vn 0.009032 0.999958 -0.001856
vn 0.002956 0.999994 -0.001859
vn 0.009693 0.999939 -0.005364
vn 0.004870 0.999983 -0.003083
vn 0.004870 0.999983 -0.003083
vn 0.009693 0.999939 -0.005364
vn 0.000127 1.000000 -0.000693
vn 0.000127 1.000000 -0.000693
vn 0.012268 0.999925 -0.000157
vn 0.012268 0.999925 -0.000157
s 1
g WorldmapLine06_03 WorldmapLine06
usemtl blinn1SG
f 8/1/1 13/2/2 14/3/3 7/4/4
f 3/5/5 9/6/6 10/7/7 4/8/8
f 5/9/9 1/10/10 2/11/11 6/12/12
f 12/13/13 8/1/1 7/4/4 11/14/14
f 9/6/6 15/15/15 16/16/16 10/7/7
f 1/10/10 12/13/13 11/14/14 2/11/11
f 13/2/2 3/5/5 4/8/8 14/3/3
