# This file uses centimeters as units for non-parametric coordinates.

mtllib WorldmapLine03_07.mtl
g default
v -10.274612 1.936944 -10.666501
v -10.516447 1.861859 -10.540442
v -10.627415 2.108463 -11.415519
v -10.371856 2.160222 -11.405112
v -10.322439 2.385954 -11.679276
v -10.559611 2.360327 -11.748075
v -10.360737 2.078280 -11.098828
v -10.610984 2.017961 -11.064074
v -10.405003 2.394450 -12.086824
v -10.202919 2.413240 -11.936783
v -9.992617 2.418875 -12.129056
v -10.121815 2.410371 -12.371811
v -9.831153 2.424816 -12.186060
v -9.846999 2.427159 -12.461314
vt 0.626276 0.999837
vt 0.588735 0.999837
vt 0.588735 0.000601
vt 0.626276 0.000601
vt 0.558842 0.000601
vt 0.577765 0.000601
vt 0.577765 0.999837
vt 0.558842 0.999837
vt 0.645934 0.000601
vt 0.655195 0.000601
vt 0.655195 0.999837
vt 0.645934 0.999837
vt 0.664960 0.000601
vt 0.664960 0.999837
vn -0.177263 0.928774 0.325511
vn -0.210317 0.880944 0.423916
vn -0.210317 0.880944 0.423916
vn -0.177263 0.928774 0.325511
vn -0.058834 0.982094 -0.178967
vn -0.175192 0.941376 0.288303
vn -0.175192 0.941376 0.288303
vn -0.057015 0.983137 -0.173755
vn -0.092039 0.995659 0.013829
vn -0.056078 0.998396 -0.007743
vn -0.056078 0.998396 -0.007743
vn -0.092039 0.995659 0.013829
vn -0.003756 0.998812 -0.048582
vn -0.042238 0.997998 -0.047077
s 1
g WorldmapLine03_07 WorldmapLine03
usemtl blinn1SG
f 6/1/1 3/2/2 4/3/3 5/4/4
f 1/5/5 7/6/6 8/7/7 2/8/8
f 10/9/9 11/10/10 12/11/11 9/12/12
f 7/6/6 4/3/3 3/2/2 8/7/7
f 5/4/4 10/9/9 9/12/12 6/1/1
f 11/10/10 13/13/13 14/14/14 12/11/11
