# This file uses centimeters as units for non-parametric coordinates.

mtllib WorldmapLine01_08.mtl
g default
v -10.446210 -0.375475 8.730830
v -10.429699 -0.383122 8.539559
v -11.984463 -0.381239 8.896913
v -11.780166 -0.377306 8.928300
v -11.724730 -0.381738 8.537722
v -11.653531 -0.376821 8.717641
v -11.893246 -0.381478 8.696256
v -11.728541 -0.377074 8.816119
v -11.516468 -0.382029 8.503038
v -11.528260 -0.376538 8.681669
v -10.285207 -0.394207 8.741310
v -10.217999 -0.399627 8.551715
vt 0.406085 0.000601
vt 0.439600 0.000601
vt 0.439600 0.999837
vt 0.406085 0.999837
vt 0.392163 0.000601
vt 0.397155 0.000601
vt 0.397155 0.999837
vt 0.392163 0.999837
vt 0.388169 0.000601
vt 0.388169 0.999837
vt 0.444888 0.000601
vt 0.444888 0.999837
vn -0.002252 0.999494 -0.031715
vn 0.064205 0.997262 -0.036682
vn 0.026274 0.999465 -0.019488
vn -0.002252 0.999494 -0.031715
vn -0.018462 0.999747 -0.012850
vn -0.011911 0.999676 -0.022518
vn -0.011911 0.999676 -0.022518
vn -0.018462 0.999747 -0.012850
vn -0.019018 0.999781 -0.008705
vn -0.019018 0.999781 -0.008705
vn 0.094914 0.995397 -0.013287
vn 0.094914 0.995397 -0.013287
s 1
g WorldmapLine01_08
usemtl blinn1SG
f 10/1/1 1/2/2 2/3/3 9/4/4
f 8/5/5 6/6/6 5/7/7 7/8/8
f 4/9/9 8/5/5 7/8/8 3/10/10
f 1/2/2 11/11/11 12/12/12 2/3/3
f 6/6/6 10/1/1 9/4/4 5/7/7
