# This file uses centimeters as units for non-parametric coordinates.

mtllib WorldmapLine05_07.mtl
g default
v -8.534362 1.652968 -2.972266
v -8.428568 1.625274 -3.146524
v -7.178166 1.653460 -2.583745
v -7.156367 1.625023 -2.749625
v -7.749443 1.623743 -2.990001
v -7.809352 1.654589 -2.826951
v -8.657213 1.654681 -3.112337
v -8.476321 1.623561 -3.204813
v -7.014452 1.632975 -2.581546
v -7.029006 1.613727 -2.743199
vt 0.487221 0.000601
vt 0.525214 0.000601
vt 0.525214 0.999837
vt 0.487221 0.999837
vt 0.434858 0.000601
vt 0.434858 0.999837
vt 0.554478 0.000601
vt 0.554478 0.999837
vt 0.429782 0.000601
vt 0.429782 0.999837
vn 0.048501 0.986190 -0.158354
vn 0.087686 0.984598 -0.151255
vn 0.087686 0.984598 -0.151255
vn 0.048501 0.986190 -0.158354
vn 0.073066 0.989320 -0.126123
vn 0.073066 0.989320 -0.126123
vn 0.111581 0.983737 -0.140753
vn 0.111581 0.983737 -0.140753
vn 0.112695 0.988891 -0.096925
vn 0.112695 0.988891 -0.096925
s 1
g WorldmapLine05_07 WorldmapLine05
usemtl blinn1SG
f 6/1/1 3/2/2 4/3/3 5/4/4
f 1/5/5 6/1/1 5/4/4 2/6/6
f 3/2/2 9/7/7 10/8/8 4/3/3
f 7/9/9 1/5/5 2/6/6 8/10/10
