# This file uses centimeters as units for non-parametric coordinates.

mtllib WorldmapLine03_06.mtl
g default
v -9.228748 1.933388 -8.862544
v -9.469063 1.887477 -9.025315
v -9.168102 1.935157 -9.148397
v -9.443973 1.879415 -9.105537
v -9.777126 1.936123 -9.924628
v -10.012108 1.869931 -9.787548
v -10.274615 1.936944 -10.666500
v -10.516450 1.861859 -10.540442
vt 0.527353 0.000601
vt 0.533233 0.000601
vt 0.533233 0.999837
vt 0.527353 0.999837
vt 0.547068 0.000601
vt 0.547068 0.999837
vt 0.558842 0.000601
vt 0.558842 0.999837
vn -0.160453 0.987043 0.000835
vn -0.181950 0.982432 0.041501
vn -0.181950 0.982432 0.041501
vn -0.095568 0.990114 -0.102673
vn -0.196822 0.970504 0.139222
vn -0.196822 0.970504 0.139222
vn -0.058834 0.982094 -0.178967
vn -0.057015 0.983137 -0.173755
s 1
g WorldmapLine03_06 WorldmapLine03
usemtl blinn1SG
f 1/1/1 3/2/2 4/3/3 2/4/4
f 3/2/2 5/5/5 6/6/6 4/3/3
f 5/5/5 7/7/7 8/8/8 6/6/6
