# This file uses centimeters as units for non-parametric coordinates.

mtllib WorldmapLine08_03.mtl
g default
v 10.128808 1.914598 -5.178779
v 10.236250 1.914031 -4.948888
v 10.445613 1.891338 -5.139449
v 10.242415 1.895985 -5.299207
v 8.937428 1.899527 -5.171304
v 8.949862 1.899206 -4.933451
vt 0.278394 0.000601
vt 0.278394 0.999837
vt 0.268891 0.999837
vt 0.268891 0.000601
vt 0.292316 0.000601
vt 0.292316 0.999837
vn 0.033685 0.999179 -0.022489
vn 0.033685 0.999179 -0.022489
vn -0.012019 0.999915 0.004978
vn -0.012019 0.999915 0.004978
vn 0.079294 0.995602 -0.049891
vn 0.079294 0.995602 -0.049891
s 1
g WorldmapLine08_03 WorldmapLine08
usemtl blinn1SG
f 2/1/1 1/2/2 5/3/3 6/4/4
f 3/5/5 4/6/6 1/2/2 2/1/1
