# This file uses centimeters as units for non-parametric coordinates.

mtllib WorldmapLine01_01.mtl
g default
v -12.082694 -0.653685 7.456905
v -11.951225 -0.653685 7.632934
v -13.311028 -0.549381 8.182463
v -13.138121 -0.549381 8.296564
v -12.677026 -0.606868 7.680494
v -12.574574 -0.606868 7.853996
v -13.007166 -0.575536 7.881912
v -12.876550 -0.575536 8.047030
v -13.403838 -0.526225 8.440143
v -13.209889 -0.526225 8.486258
vt 0.001777 0.000601
vt 0.026848 0.000601
vt 0.026848 0.999837
vt 0.001777 0.999837
vt 0.057171 0.000601
vt 0.067083 0.000601
vt 0.067083 0.999837
vt 0.057171 0.999837
vt 0.043463 0.999837
vt 0.043463 0.000601
vn 0.000000 1.000000 0.000000
vn 0.065365 0.996873 -0.044403
vn 0.065365 0.996873 -0.044403
vn 0.000000 1.000000 0.000000
vn 0.041825 0.996755 -0.068783
vn 0.000000 1.000000 0.000000
vn 0.000000 1.000000 0.000000
vn 0.041825 0.996755 -0.068783
vn 0.056988 0.997212 -0.048170
vn 0.056988 0.997212 -0.048170
s 1
g WorldmapLine01_01
usemtl blinn1SG
f 1/1/1 5/2/2 6/3/3 2/4/4
f 3/5/5 9/6/6 10/7/7 4/8/8
f 8/9/9 6/3/3 5/2/2 7/10/10
f 7/10/10 3/5/5 4/8/8 8/9/9
