# This file uses centimeters as units for non-parametric coordinates.

mtllib WorldmapLine03_10.mtl
g default
v -6.919788 2.388999 -9.574798
v -6.827030 2.377045 -9.795239
v -7.694094 2.333785 -10.061642
v -7.469243 2.320374 -10.210352
v -7.401626 2.357080 -10.120504
v -7.538841 2.368710 -9.909085
v -5.984858 2.321091 -9.179845
v -5.890152 2.306158 -9.379096
vt 0.849008 0.000601
vt 0.901761 0.000601
vt 0.901761 0.999837
vt 0.849008 0.999837
vt 0.819464 0.000601
vt 0.819464 0.999837
vt 0.812254 0.000601
vt 0.812254 0.999837
vn 0.008291 0.997949 -0.063476
vn 0.047112 0.997653 -0.049695
vn 0.008291 0.997949 -0.063476
vn 0.047112 0.997653 -0.049695
vn -0.058896 0.991026 -0.119996
vn -0.058896 0.991026 -0.119996
vn -0.114625 0.976383 -0.183132
vn -0.114625 0.976383 -0.183132
s 1
g WorldmapLine03_10 WorldmapLine03
usemtl blinn1SG
f 1/1/1 7/2/2 8/3/3 2/4/4
f 6/5/5 1/1/1 2/4/4 5/6/6
f 3/7/7 6/5/5 5/6/6 4/8/8
