# This file uses centimeters as units for non-parametric coordinates.

mtllib WorldmapLine08_10.mtl
g default
v 13.862614 2.478858 -8.442632
v 14.078226 2.478858 -8.564836
v 13.543281 2.478858 -7.053232
v 13.706667 2.478858 -6.884670
v 13.781684 2.478858 -7.515638
v 13.999729 2.478858 -7.442327
v 13.888769 2.478418 -7.993704
v 14.134772 2.479297 -7.982077
v 13.714571 2.468822 -8.671474
v 13.822705 2.488894 -8.872194
v 13.487193 2.492562 -8.956123
v 13.499207 2.465154 -8.717328
vt 0.826080 0.000601
vt 0.826080 0.999837
vt 0.811300 0.999837
vt 0.811300 0.000601
vt 0.794816 0.000601
vt 0.794816 0.999837
vt 0.774363 0.999837
vt 0.774363 0.000601
vt 0.830954 0.000601
vt 0.830954 0.999837
vt 0.835650 0.000601
vt 0.835650 0.999837
vn -0.018627 0.999737 0.013392
vn -0.018627 0.999737 0.013392
vn -0.001841 0.999998 -0.000141
vn -0.001841 0.999998 -0.000141
vn -0.000907 1.000000 -0.000216
vn -0.000907 1.000000 -0.000216
vn 0.000000 1.000000 -0.000000
vn 0.000000 1.000000 -0.000000
vn -0.029745 0.997478 0.064443
vn -0.029745 0.997478 0.064443
vn -0.024069 0.994476 0.102164
vn -0.024069 0.994476 0.102164
s 1
g WorldmapLine08_10 WorldmapLine08
usemtl blinn1SG
f 2/1/1 1/2/2 7/3/3 8/4/4
f 6/5/5 5/6/6 3/7/7 4/8/8
f 8/4/4 7/3/3 5/6/6 6/5/5
f 10/9/9 9/10/10 1/2/2 2/1/1
f 11/11/11 12/12/12 9/10/10 10/9/9
