# This file uses centimeters as units for non-parametric coordinates.

mtllib WorldmapLine02_10.mtl
g default
v -8.131619 1.127797 0.978106
v -8.118343 1.091839 0.737589
v -8.046983 1.112634 0.719376
v -7.931904 1.148134 0.899212
v -7.490667 1.237257 -0.397208
v -7.272446 1.270013 -0.325201
v -7.252389 1.284428 -0.496270
v -7.477372 1.251996 -0.479356
vt 0.788898 0.999837
vt 0.793358 0.999837
vt 0.793358 0.000601
vt 0.788898 0.000601
vt 0.732351 0.999837
vt 0.740950 0.999837
vt 0.740950 0.000601
vt 0.732351 0.000601
vn -0.178360 0.982889 0.046015
vn -0.148489 0.987690 -0.049189
vn -0.125126 0.990205 -0.061952
vn -0.178360 0.982889 0.046015
vn -0.102355 0.991363 -0.081995
vn -0.195714 0.978811 -0.060214
vn -0.195714 0.978811 -0.060214
vn -0.070995 0.993224 -0.092015
s 1
g WorldmapLine02_10 WorldmapLine02
usemtl blinn1SG
f 6/1/1 7/2/2 8/3/3 5/4/4
f 1/5/5 4/6/6 3/7/7 2/8/8
f 4/6/6 6/1/1 5/4/4 3/7/7
