# This file uses centimeters as units for non-parametric coordinates.

mtllib WorldmapLine04_05.mtl
g default
v 0.055425 2.138692 -11.142145
v 0.085552 2.129227 -11.378305
v 1.292209 2.138871 -11.943585
v 1.247979 2.129048 -12.176456
v 0.170273 2.129212 -11.396511
v 0.229639 2.138707 -11.166984
v 1.400365 2.139020 -11.930515
v 1.502616 2.128899 -12.155040
vt 0.369291 0.999837
vt 0.256272 0.999837
vt 0.256272 0.000601
vt 0.369291 0.000601
vt 0.382164 0.000601
vt 0.382164 0.999837
vt 0.245796 0.999837
vt 0.245796 0.000601
vn -0.011006 0.999160 -0.039473
vn -0.016398 0.999140 -0.038076
vn -0.016398 0.999140 -0.038076
vn -0.011006 0.999160 -0.039473
vn 0.004092 0.999065 -0.043047
vn 0.004092 0.999065 -0.043047
vn -0.006692 0.999167 -0.040258
vn -0.006692 0.999167 -0.040258
s 1
g WorldmapLine04_05 WorldmapLine04
usemtl blinn1SG
f 4/1/1 5/2/2 6/3/3 3/4/4
f 3/4/4 7/5/5 8/6/6 4/1/1
f 5/2/2 2/7/7 1/8/8 6/3/3
