# This file uses centimeters as units for non-parametric coordinates.

mtllib WorldmapLine07_03.mtl
g default
v 7.276302 1.299560 4.674730
v 7.266669 1.313208 4.935358
v 7.420357 1.300337 4.662620
v 7.458542 1.312432 4.913382
v 8.344738 1.311346 4.969679
v 8.315824 1.301422 4.741185
v 9.007838 1.310215 4.858336
v 8.946939 1.302553 4.636183
vt 0.249453 0.000601
vt 0.279514 0.000601
vt 0.279514 0.999837
vt 0.249453 0.999837
vt 0.243117 0.999837
vt 0.243117 0.000601
vt 0.315008 0.000601
vt 0.315261 0.999837
vn -0.000781 0.998838 -0.048190
vn -0.001398 0.999114 -0.042065
vn -0.001398 0.999114 -0.042065
vn -0.000781 0.998838 -0.048190
vn -0.005073 0.998737 -0.049992
vn -0.005073 0.998737 -0.049992
vn -0.006308 0.999268 -0.037740
vn -0.006308 0.999268 -0.037740
s 1
g WorldmapLine07_03 WorldmapLine07
usemtl blinn1SG
f 4/1/1 5/2/2 6/3/3 3/4/4
f 4/1/1 3/4/4 1/5/5 2/6/6
f 7/7/7 8/8/8 6/3/3 5/2/2
