# This file uses centimeters as units for non-parametric coordinates.

mtllib WorldmapLine03_09.mtl
g default
v -8.115413 2.319847 -11.677375
v -7.912575 2.302362 -11.869267
v -7.940503 2.322376 -10.947586
v -7.694268 2.308367 -11.017370
v -7.763034 2.354228 -10.236144
v -7.497580 2.340925 -10.284979
v -7.694095 2.333786 -10.061642
v -7.469243 2.320375 -10.210352
vt 0.771543 0.000601
vt 0.794532 0.000601
vt 0.794532 0.999837
vt 0.771543 0.999837
vt 0.804486 0.000601
vt 0.804486 0.999837
vt 0.812254 0.000601
vt 0.812254 0.999837
vn 0.043791 0.997904 -0.047641
vn 0.049457 0.998074 -0.037460
vn 0.049457 0.998074 -0.037460
vn 0.047112 0.997653 -0.049695
vn 0.072077 0.996828 0.033750
vn 0.072077 0.996828 0.033750
vn 0.103017 0.987144 0.122202
vn 0.103017 0.987144 0.122202
s 1
g WorldmapLine03_09 WorldmapLine03
usemtl blinn1SG
f 1/1/1 3/2/2 4/3/3 2/4/4
f 3/2/2 5/5/5 6/6/6 4/3/3
f 5/5/5 7/7/7 8/8/8 6/6/6
