# This file uses centimeters as units for non-parametric coordinates.

mtllib WorldmapLine02_07.mtl
g default
v -9.361485 1.162977 2.626194
v -9.512332 1.064897 2.437491
v -9.469104 1.083662 2.324502
v -9.257218 1.168384 2.334728
v -10.144683 1.182333 1.064764
v -9.941105 1.205435 1.039572
v -9.972785 1.209831 0.949722
v -10.195442 1.194491 0.934832
vt 0.549670 0.999837
vt 0.554494 0.999837
vt 0.554494 0.000601
vt 0.549670 0.000601
vt 0.495633 0.999837
vt 0.502522 0.999837
vt 0.502522 0.000601
vt 0.495633 0.000601
vn -0.164547 0.975861 0.143594
vn -0.086739 0.990454 0.107134
vn -0.086739 0.990454 0.107134
vn -0.164547 0.975861 0.143594
vn -0.172721 0.979280 0.105724
vn -0.328086 0.943665 0.043083
vn -0.328086 0.943665 0.043083
vn -0.171584 0.982162 0.076923
s 1
g WorldmapLine02_07 WorldmapLine02
usemtl blinn1SG
f 6/1/1 7/2/2 8/3/3 5/4/4
f 1/5/5 4/6/6 3/7/7 2/8/8
f 4/6/6 6/1/1 5/4/4 3/7/7
