# This file uses centimeters as units for non-parametric coordinates.

mtllib WorldmapLine01_04.mtl
g default
v -12.885031 -0.379245 11.485430
v -12.840275 -0.379245 11.301545
v -12.196006 -0.379245 11.439895
v -12.158668 -0.379245 11.269154
v -11.945102 -0.379245 11.496701
v -11.867768 -0.379245 11.334610
v -11.351040 -0.379245 11.697940
v -11.441298 -0.379245 11.861914
v -12.741723 -0.379245 11.294857
v -12.720591 -0.379245 11.482491
v -11.317381 -0.379245 11.918744
v -11.276767 -0.379245 11.723508
vt 0.203680 0.000601
vt 0.235625 0.000601
vt 0.235625 0.999837
vt 0.203680 0.999837
vt 0.270628 0.999837
vt 0.245166 0.999837
vt 0.245166 0.000601
vt 0.270628 0.000601
vt 0.273287 0.000601
vt 0.273287 0.999837
vt 0.198545 0.000601
vt 0.198545 0.999837
vn 0.000000 1.000000 0.000000
vn -0.000000 1.000000 0.000000
vn -0.000000 1.000000 0.000000
vn 0.000000 1.000000 0.000000
vn 0.000000 1.000000 0.000000
vn 0.000000 1.000000 0.000000
vn 0.000000 1.000000 0.000000
vn 0.000000 1.000000 0.000000
vn 0.000000 1.000000 0.000000
vn 0.000000 1.000000 0.000000
vn 0.000000 1.000000 0.000000
vn 0.000000 1.000000 0.000000
s 1
g WorldmapLine01_04
usemtl blinn1SG
f 10/1/1 3/2/2 4/3/3 9/4/4
f 7/5/5 6/6/6 5/7/7 8/8/8
f 6/6/6 4/3/3 3/2/2 5/7/7
f 8/8/8 11/9/9 12/10/10 7/5/5
f 1/11/11 10/1/1 9/4/4 2/12/12
