# This file uses centimeters as units for non-parametric coordinates.

mtllib WorldmapLine03_08.mtl
g default
v -9.831152 2.424816 -12.186060
v -9.846998 2.427158 -12.461314
v -8.868828 2.372876 -11.982691
v -8.796248 2.357201 -12.239404
v -9.549994 2.382995 -12.425862
v -9.606638 2.386952 -12.159396
v -8.176389 2.337127 -11.737189
v -8.014315 2.319746 -11.971088
v -8.115412 2.319846 -11.677374
v -7.912575 2.302362 -11.869267
vt 0.710176 0.000601
vt 0.732502 0.000601
vt 0.732502 0.999837
vt 0.709740 0.999837
vt 0.767177 0.000601
vt 0.767177 0.999837
vt 0.664960 0.000601
vt 0.664960 0.999837
vt 0.771543 0.000601
vt 0.771543 0.999837
vn 0.094269 0.995494 -0.010250
vn 0.035033 0.998022 -0.052196
vn 0.021240 0.998318 -0.053939
vn 0.094269 0.995494 -0.010250
vn 0.109901 0.993909 0.008188
vn 0.109901 0.993909 0.008188
vn -0.003756 0.998812 -0.048582
vn -0.042238 0.997998 -0.047077
vn 0.043791 0.997904 -0.047641
vn 0.047112 0.997653 -0.049695
s 1
g WorldmapLine03_08 WorldmapLine03
usemtl blinn1SG
f 6/1/1 3/2/2 4/3/3 5/4/4
f 3/2/2 7/5/5 8/6/6 4/3/3
f 1/7/7 6/1/1 5/4/4 2/8/8
f 7/5/5 9/9/9 10/10/10 8/6/6
