# This file uses centimeters as units for non-parametric coordinates.

mtllib WorldmapLine06_10.mtl
g default
v 1.156751 0.496164 7.077866
v 0.922073 0.444111 6.978704
v 0.882378 0.438649 8.184700
v 1.123615 0.500281 8.136291
v 0.801586 0.443718 7.683168
v 1.035651 0.495906 7.649279
v 1.117674 0.444693 6.655978
v 1.301522 0.496545 6.823104
v 1.403302 0.443811 6.373084
v 1.550187 0.498562 6.578842
v 0.819492 0.443936 7.292424
v 1.068391 0.496049 7.344467
v 1.913260 0.498393 6.398197
v 1.816197 0.445252 6.148441
vt 0.864837 0.000601
vt 0.869747 0.000601
vt 0.869747 0.999837
vt 0.864837 0.999837
vt 0.897822 0.000601
vt 0.912447 0.000601
vt 0.912447 0.999837
vt 0.897822 0.999837
vt 0.845001 0.000601
vt 0.858518 0.000601
vt 0.858518 0.999837
vt 0.845001 0.999837
vt 0.883190 0.000601
vt 0.883190 0.999837
vn -0.201060 0.978815 -0.038675
vn -0.184501 0.979342 -0.082753
vn -0.184501 0.979342 -0.082753
vn -0.201060 0.978815 -0.038675
vn -0.122099 0.978811 -0.164382
vn -0.095885 0.978888 -0.180509
vn -0.095885 0.978888 -0.180509
vn -0.122099 0.978811 -0.164382
vn -0.226261 0.973273 0.039308
vn -0.218487 0.975763 0.012248
vn -0.218487 0.975763 0.012248
vn -0.226261 0.973273 0.039308
vn -0.162892 0.978620 -0.125579
vn -0.162892 0.978620 -0.125579
s 1
g WorldmapLine06_10 WorldmapLine06
usemtl blinn1SG
f 12/1/1 1/2/2 2/3/3 11/4/4
f 10/5/5 13/6/6 14/7/7 9/8/8
f 4/9/9 6/10/10 5/11/11 3/12/12
f 1/2/2 8/13/13 7/14/14 2/3/3
f 8/13/13 10/5/5 9/8/8 7/14/14
f 6/10/10 12/1/1 11/4/4 5/11/11
