# This file uses centimeters as units for non-parametric coordinates.

mtllib WorldmapLine01_11.mtl
g default
v -8.415688 -0.094092 8.581273
v -8.326311 -0.113147 8.714319
v -6.996325 0.249964 8.037460
v -6.931627 0.251079 8.188355
vt 0.671125 0.000601
vt 0.747797 0.000601
vt 0.747797 0.999837
vt 0.671125 0.999837
vn -0.183060 0.969893 0.160613
vn -0.183060 0.969893 0.160613
vn -0.183060 0.969893 0.160613
vn -0.183060 0.969893 0.160613
s off
g WorldmapLine01_11
usemtl blinn1SG
f 2/1/1 4/2/2 3/3/3 1/4/4
