# This file uses centimeters as units for non-parametric coordinates.

mtllib WorldmapLine03_05.mtl
g default
v -10.334220 2.031717 -8.847106
v -10.243676 1.981987 -9.091735
v -9.525528 1.894689 -8.977151
v -9.460170 1.941257 -8.706040
v -11.183048 1.966080 -9.533354
v -11.323898 2.016236 -9.316976
v -10.706001 1.974262 -9.280359
v -10.825839 2.024199 -9.050788
v -9.228749 1.933389 -8.862544
v -9.469064 1.887477 -9.025315
vt 0.521204 0.000601
vt 0.527353 0.000601
vt 0.527353 0.999837
vt 0.521204 0.999837
vt 0.471128 0.000601
vt 0.474068 0.000601
vt 0.474068 0.999837
vt 0.471128 0.999837
vt 0.468014 0.000601
vt 0.468014 0.999837
vn 0.036173 0.984686 -0.170544
vn -0.160453 0.987043 0.000835
vn -0.095568 0.990114 -0.102673
vn 0.036173 0.984686 -0.170544
vn 0.067784 0.981722 -0.177839
vn -0.058834 0.982094 -0.178967
vn -0.057015 0.983137 -0.173755
vn 0.067784 0.981722 -0.177839
vn 0.077058 0.981503 -0.175253
vn 0.077058 0.981503 -0.175253
s 1
g WorldmapLine03_05 WorldmapLine03
usemtl blinn1SG
f 4/1/1 9/2/2 10/3/3 3/4/4
f 8/5/5 1/6/6 2/7/7 7/8/8
f 1/6/6 4/1/1 3/4/4 2/7/7
f 6/9/9 8/5/5 7/8/8 5/10/10
