# This file uses centimeters as units for non-parametric coordinates.

mtllib WorldmapLine01_06.mtl
g default
v -9.785487 -0.384369 11.064068
v -9.992338 -0.374120 11.088151
v -9.975091 -0.379245 11.218159
v -9.783747 -0.379245 11.275102
v -10.833887 -0.381098 10.032821
v -10.960228 -0.377417 10.164412
vt 0.310846 0.000601
vt 0.315839 0.000601
vt 0.315839 0.999837
vt 0.311108 0.999837
vt 0.349335 0.000601
vt 0.349335 0.999837
vn 0.025849 0.999665 -0.001439
vn 0.000000 1.000000 0.000000
vn 0.000000 1.000000 0.000000
vn 0.025849 0.999665 -0.001439
vn 0.028187 0.999179 -0.029084
vn 0.028187 0.999179 -0.029084
s 1
g WorldmapLine01_06
usemtl blinn1SG
f 4/1/1 1/2/2 2/3/3 3/4/4
f 1/2/2 5/5/5 6/6/6 2/3/3
