# This file uses centimeters as units for non-parametric coordinates.

mtllib WorldmapLine02_06.mtl
g default
v -11.231659 1.122783 1.956455
v -11.264111 1.092318 1.718244
v -11.110945 1.086523 1.717202
v -11.154476 1.131278 1.948754
v -9.621942 1.072723 2.470663
v -9.642737 1.153327 2.693793
v -9.361487 1.162977 2.626195
v -9.512335 1.064898 2.437491
vt 0.488734 0.999837
vt 0.495633 0.999837
vt 0.495633 0.000601
vt 0.488734 0.000601
vt 0.459323 0.999837
vt 0.465527 0.999837
vt 0.465527 0.000601
vt 0.459323 0.000601
vn 0.010878 0.950289 -0.311181
vn -0.172721 0.979280 0.105724
vn -0.171584 0.982162 0.076923
vn 0.010878 0.950289 -0.311181
vn -0.127240 0.991737 -0.016350
vn 0.051957 0.977614 -0.203892
vn 0.051957 0.977614 -0.203892
vn -0.073097 0.993444 -0.087896
s 1
g WorldmapLine02_06 WorldmapLine02
usemtl blinn1SG
f 6/1/1 7/2/2 8/3/3 5/4/4
f 1/5/5 4/6/6 3/7/7 2/8/8
f 4/6/6 6/1/1 5/4/4 3/7/7
