# This file uses centimeters as units for non-parametric coordinates.

mtllib WorldmapLine05_08.mtl
g default
v -7.029006 1.613727 -2.743199
v -7.014452 1.632975 -2.581546
v -6.812234 1.560482 -2.897781
v -6.666111 1.576404 -2.798470
v -6.730690 1.513365 -3.122931
v -6.558300 1.528624 -3.121588
v -6.950985 1.615279 -3.861964
v -6.796008 1.624923 -3.928513
v -6.810002 1.604230 -2.655900
v -6.907221 1.585016 -2.804779
v -6.749868 1.534469 -3.009554
v -6.579463 1.551850 -2.950094
v -6.729398 1.533905 -3.219944
v -6.568725 1.547434 -3.255301
v -6.852836 1.654318 -4.103453
v -7.037603 1.649011 -4.106045
vt 0.554478 0.000601
vt 0.563829 0.000601
vt 0.563829 0.999837
vt 0.554478 0.999837
vt 0.583793 0.000601
vt 0.594738 0.000601
vt 0.594738 0.999837
vt 0.583793 0.999837
vt 0.603128 0.000601
vt 0.660556 0.000601
vt 0.660556 0.999837
vt 0.603128 0.999837
vt 0.573627 0.000601
vt 0.573627 0.999837
vt 0.684114 0.000601
vt 0.684114 0.999837
vn 0.106257 0.981413 -0.159804
vn 0.073063 0.982887 -0.169100
vn 0.073063 0.982887 -0.169100
vn 0.106257 0.981413 -0.159804
vn -0.035900 0.983479 -0.177424
vn -0.067197 0.997732 0.004019
vn -0.067197 0.997732 0.004019
vn -0.035900 0.983479 -0.177424
vn -0.049169 0.987414 0.150317
vn -0.022623 0.989606 0.142017
vn -0.022623 0.989606 0.142017
vn -0.049169 0.987414 0.150317
vn 0.016487 0.982548 -0.185279
vn 0.016487 0.982548 -0.185279
vn -0.014520 0.987993 0.153817
vn -0.014520 0.987993 0.153817
s 1
g WorldmapLine05_08 WorldmapLine05
usemtl blinn1SG
f 2/1/1 9/2/2 10/3/3 1/4/4
f 12/5/5 6/6/6 5/7/7 11/8/8
f 14/9/9 8/10/10 7/11/11 13/12/12
f 9/2/2 4/13/13 3/14/14 10/3/3
f 4/13/13 12/5/5 11/8/8 3/14/14
f 6/6/6 14/9/9 13/12/12 5/7/7
f 8/10/10 15/15/15 16/16/16 7/11/11
